HIERARCHY
ROOT hip
{
	OFFSET 0.000000 0.000000 0.000000
	CHANNELS 6 Xposition Yposition Zposition Xrotation Zrotation Yrotation 
	JOINT abdomen
	{
		OFFSET 0.000000 3.422050 0.000000
		CHANNELS 3 Xrotation Zrotation Yrotation 
		JOINT chest
		{
			OFFSET 0.000000 8.486693 -0.684411
			CHANNELS 3 Xrotation Zrotation Yrotation 
			JOINT neck
			{
				OFFSET 0.000000 10.266162 -0.273764
				CHANNELS 3 Xrotation Zrotation Yrotation 
				JOINT head
				{
					OFFSET 0.000000 3.148285 0.000000
					CHANNELS 3 Xrotation Zrotation Yrotation 
					End Site
					{
						OFFSET 0.000000 3.148289 0.000000
					}
				}
			}
			JOINT lCollar
			{
				OFFSET 3.422053 6.707223 -0.821293
				CHANNELS 3 Yrotation Zrotation Xrotation 
				JOINT lShldr
				{
					OFFSET 3.285171 0.000000 0.000000
					CHANNELS 3 Zrotation Yrotation Xrotation 
					JOINT lForeArm
					{
						OFFSET 10.129278 0.000000 0.000000
						CHANNELS 3 Yrotation Zrotation Xrotation 
						JOINT lHand
						{
							OFFSET 8.486692 0.000000 0.000000
							CHANNELS 3 Zrotation Yrotation Xrotation 
							End Site
							{
								OFFSET 4.106464 0.000000 0.000000
							}
						}
					}
				}
			}
			JOINT rCollar
			{
				OFFSET -3.558935 6.707223 -0.821293
				CHANNELS 3 Yrotation Zrotation Xrotation 
				JOINT rShldr
				{
					OFFSET -3.148289 0.000000 0.000000
					CHANNELS 3 Zrotation Yrotation Xrotation 
					JOINT rForeArm
					{
						OFFSET -10.266159 0.000000 0.000000
						CHANNELS 3 Yrotation Zrotation Xrotation 
						JOINT rHand
						{
							OFFSET -8.349810 0.000000 0.000000
							CHANNELS 3 Zrotation Yrotation Xrotation 
							End Site
							{
								OFFSET -4.106464 0.000000 0.000000
							}
						}
					}
				}
			}
		}
	}
	JOINT lThigh
	{
		OFFSET 5.338403 -1.642589 1.368821
		CHANNELS 3 Xrotation Zrotation Yrotation 
		JOINT lShin
		{
			OFFSET -2.053232 -20.121670 0.000000
			CHANNELS 3 Xrotation Zrotation Yrotation 
			JOINT lFoot
			{
				OFFSET 0.000000 -19.300380 -1.231939
				CHANNELS 3 Xrotation Yrotation Zrotation 
				End Site
				{
					OFFSET 0.000000 -2.463878 4.653993
				}
			}
		}
	}
	JOINT rThigh
	{
		OFFSET -5.338403 -1.642589 1.368821
		CHANNELS 3 Xrotation Zrotation Yrotation 
		JOINT rShin
		{
			OFFSET 2.053232 -20.121670 0.000000
			CHANNELS 3 Xrotation Zrotation Yrotation 
			JOINT rFoot
			{
				OFFSET 0.000000 -19.300380 -1.231939
				CHANNELS 3 Xrotation Yrotation Zrotation 
				End Site
				{
					OFFSET 0.000000 -2.463878 4.653993
				}
			}
		}
	}
}
MOTION
Frames: 15
Frame Time: 0.033264
0.000000 43.528500 0.000000 0.000000 0.000000 0.000000 0.000000 0.000000 0.000000 0.000000 0.000000 0.000000 0.000000 0.000000 0.000000 0.000000 0.000000 0.000000 0.000000 0.000000 0.000000 0.000000 0.000000 0.000000 0.000000 0.000000 0.000000 0.000000 0.000000 0.000000 0.000000 0.000000 0.000000 0.000000 0.000000 0.000000 0.000000 0.000000 0.000000 0.000000 0.000000 0.000000 0.000000 0.000000 0.000000 0.000000 0.000000 0.000000 0.000000 0.000000 0.000000 0.000000 0.000000 0.000000 0.000000 0.000000 0.000000 0.000000 0.000000 0.000000 
-0.465591 3.876141 0.129158 -101.018105 0.000000 0.000000 18.519093 -1.057057 -0.656017 -13.383544 1.829251 -0.931280 -1.000566 11.998203 -0.001415 0.000000 10.999558 0.000000 -2.023043 -1.539447 -4.297448 -80.021599 -14.281322 2.414624 -40.924725 -5.541023 6.085138 -45.757591 11.590343 3.933973 14.794865 -16.164667 -1.960652 66.770264 23.520548 -2.916655 78.028999 18.395533 -1.233342 61.363033 20.351206 -0.800236 -21.117434 13.380580 4.899909 85.262245 -11.912813 5.667160 32.189308 3.942390 -4.144529 -19.745472 -16.375908 -2.333003 78.405067 12.161250 -7.088133 38.650791 -0.299418 4.447547 
-0.465591 3.989615 0.174548 -100.351570 0.000000 0.000000 17.030729 -1.057043 -0.656032 -12.387047 1.829361 -0.931369 -1.000622 12.497737 -0.001468 -0.277867 10.999556 -0.000110 -1.672497 -1.309267 -3.840645 -80.117004 -13.995703 2.494635 -42.313206 -5.794213 6.012874 -45.802563 11.893320 3.601989 14.062520 -16.875717 -2.884436 67.411087 23.411871 -2.580568 78.408836 18.734022 -1.352332 60.632210 20.133116 -1.783659 -21.682577 13.333753 4.805807 85.262253 -11.912815 5.667160 31.920776 3.889541 -4.290669 -20.388985 -16.224085 -2.057770 78.405067 12.161250 -7.088133 38.395435 -0.288658 4.805090 
-0.465591 4.103089 0.219938 -99.684685 0.000000 0.000000 15.538288 -1.057030 -0.656047 -11.389336 1.829472 -0.931455 -1.000678 12.997422 -0.001520 -0.555761 10.999554 -0.000220 -1.323668 -1.076198 -3.385089 -80.211876 -13.709914 2.574064 -43.706043 -6.046196 5.934227 -45.849396 12.196109 3.269306 13.314039 -17.576561 -3.822963 68.050949 23.299709 -2.245958 78.790321 19.071857 -1.473972 59.905582 19.903015 -2.763906 -22.247738 13.286006 4.712167 85.262245 -11.912814 5.667160 31.652094 3.837368 -4.437064 -21.031553 -16.069229 -1.784405 78.405067 12.161250 -7.088133 38.139938 -0.279490 5.162760 
-0.465591 4.216564 0.265329 -99.017479 0.000000 0.000000 14.042258 -1.057017 -0.656063 -10.390561 1.829586 -0.931540 -1.000735 13.497243 -0.001574 -0.833677 10.999550 -0.000330 -0.976587 -0.840271 -2.930809 -80.306252 -13.423978 2.652921 -45.102867 -6.296736 5.849218 -45.898098 12.498693 2.935914 12.549378 -18.266636 -4.776301 68.689796 23.184082 -1.912888 79.173431 19.409010 -1.598276 59.183521 19.661016 -3.740621 -22.812893 13.237349 4.619005 85.262253 -11.912815 5.667160 31.383259 3.785877 -4.583709 -21.673128 -15.911370 -1.512957 78.405067 12.161251 -7.088134 37.884350 -0.271915 5.520543 
-0.465591 4.330038 0.310719 -98.350037 0.000000 0.000000 12.543144 -1.057004 -0.656079 -9.390870 1.829700 -0.931622 -1.000792 13.997175 -0.001628 -1.111613 10.999547 -0.000440 -0.631287 -0.601522 -2.477834 -80.400108 -13.137886 2.731208 -46.503315 -6.545594 5.757871 -45.948658 12.801044 2.601802 11.768505 -18.945358 -5.744490 69.327553 23.065010 -1.581420 79.558220 19.745438 -1.725262 58.466347 19.407248 -4.713470 -23.378010 13.187784 4.526333 85.262245 -11.912813 5.667159 31.114296 3.735069 -4.730602 -22.313656 -15.750541 -1.243473 78.405067 12.161250 -7.088133 37.628674 -0.265936 5.878419 
-0.465591 4.443512 0.356109 -97.682335 0.000000 0.000000 11.041442 -1.056992 -0.656095 -8.390416 1.829816 -0.931703 -1.000850 14.497203 -0.001683 -1.389565 10.999543 -0.000550 -0.287799 -0.359986 -2.026193 -80.493462 -12.851653 2.808929 -47.907036 -6.792536 5.660226 -46.001106 13.103153 2.266963 10.971417 -19.612162 -6.727544 69.964165 22.942522 -1.251617 79.944702 20.081118 -1.854945 57.754387 19.141848 -5.682124 -23.943064 13.137322 4.434164 85.262245 -11.912813 5.667160 30.845196 3.684945 -4.877734 -22.953085 -15.586772 -0.976004 78.405067 12.161250 -7.088133 37.372917 -0.261554 6.236370 
-0.465591 4.556986 0.401499 -97.014450 0.000000 0.000000 9.537668 -1.056980 -0.656112 -7.389353 1.829934 -0.931782 -1.000908 14.997308 -0.001738 -1.667530 10.999537 -0.000660 0.053847 -0.115697 -1.575912 -80.586334 -12.565283 2.886090 -49.313618 -7.037324 5.556332 -46.055443 13.404992 1.931379 10.158152 -20.266472 -7.725445 70.599548 22.816643 -0.923538 80.332878 20.416018 -1.987342 57.047966 18.864965 -6.646259 -24.508013 13.085966 4.342512 85.262245 -11.912813 5.667160 30.575953 3.635508 -5.025100 -23.591360 -15.420101 -0.710594 78.405067 12.161250 -7.088133 37.117126 -0.258769 6.594381 
-0.465591 4.670461 0.446890 -96.346428 0.000000 0.000000 8.032337 -1.056969 -0.656129 -6.387829 1.830053 -0.931858 -1.000968 15.497471 -0.001794 -1.945505 10.999534 -0.000770 0.393621 0.131308 -1.127018 -80.678711 -12.278778 2.962694 -50.722710 -7.279731 5.446252 -46.111671 13.706543 1.595046 9.328763 -20.907715 -8.738146 71.233658 22.687405 -0.597247 80.722778 20.750103 -2.122469 56.347424 18.576782 -7.605581 -25.072845 13.033728 4.251392 85.262245 -11.912813 5.667160 30.306595 3.586761 -5.172698 -24.228437 -15.250563 -0.447288 78.405067 12.161250 -7.088133 36.861286 -0.257583 6.952431 
-0.465591 4.783935 0.492280 -95.678314 0.000000 0.000000 6.525965 -1.056958 -0.656147 -5.385999 1.830173 -0.931933 -1.001027 15.997669 -0.001851 -2.223487 10.999529 -0.000880 0.731495 0.380992 -0.679537 -80.770576 -11.992144 3.038744 -52.133904 -7.519522 5.330061 -46.169796 14.007787 1.257950 8.483351 -21.535326 -9.765565 71.866417 22.554831 -0.272797 81.114403 21.083342 -2.260338 55.653011 18.277452 -8.559788 -25.637524 12.980611 4.160816 85.262245 -11.912813 5.667161 30.037123 3.538706 -5.320520 -24.864277 -15.078195 -0.186132 78.405067 12.161250 -7.088133 36.605427 -0.257995 7.310504 
-0.465591 4.897409 0.537670 -95.010162 0.000000 0.000000 5.019070 -1.056947 -0.656164 -4.384015 1.830295 -0.932006 -1.001088 16.497885 -0.001908 -2.501472 10.999519 -0.000990 1.067441 0.633317 -0.233493 -80.861977 -11.705386 3.114246 -53.546806 -7.756475 5.207841 -46.229832 14.308701 0.920083 7.622045 -22.148748 -10.807582 72.497787 22.418953 0.049752 81.507797 21.415699 -2.400969 54.965034 17.967180 -9.508609 -26.202019 12.926622 4.070796 85.262253 -11.912815 5.667160 29.767525 3.491344 -5.468562 -25.498810 -14.903029 0.072834 78.405075 12.161252 -7.088133 36.349575 -0.260007 7.668584 
-0.465591 5.010884 0.583060 -94.342010 0.000000 0.000000 3.512176 -1.056937 -0.656182 -3.382030 1.830418 -0.932076 -1.001149 16.998112 -0.001967 -2.779457 10.999515 -0.001099 1.401432 0.888246 0.211090 -80.952896 -11.418514 3.189206 -54.961018 -7.990366 5.079688 -46.291771 14.609266 0.581432 6.745015 -22.747427 -11.864043 73.127693 22.279802 0.370346 81.902969 21.747150 -2.544373 54.283764 17.646154 -10.451772 -26.766302 12.871773 3.981345 85.262245 -11.912812 5.667158 29.497831 3.444678 -5.616817 -26.132002 -14.725106 0.329567 78.405067 12.161250 -7.088133 36.093746 -0.263617 8.026650 
-0.465591 5.124358 0.628451 -93.673904 0.000000 0.000000 2.005804 -1.056928 -0.656200 -2.380201 1.830542 -0.932144 -1.001211 17.498306 -0.002025 -3.057439 10.999508 -0.001209 1.733442 1.145738 0.654189 -81.043327 -11.131528 3.263623 -56.376133 -8.220982 4.945711 -46.355633 14.909460 0.241988 5.852468 -23.330826 -12.934752 73.756096 22.137415 0.688929 82.299927 22.077654 -2.690569 53.609459 17.314583 -11.389029 -27.330349 12.816072 3.892478 85.262245 -11.912813 5.667160 29.228022 3.398710 -5.765282 -26.763805 -14.544464 0.584028 78.405052 12.161249 -7.088133 35.837940 -0.268826 8.384687 
-0.465591 5.237833 0.673841 -93.005890 0.000000 0.000000 0.500471 -1.056919 -0.656219 -1.378677 1.830667 -0.932210 -1.001273 17.998465 -0.002085 -3.335413 10.999499 -0.001319 2.063445 1.405757 1.095782 -81.133316 -10.844438 3.337508 -57.791756 -8.448112 4.806026 -46.421429 15.209266 -0.098262 4.944655 -23.898405 -14.019472 74.382912 21.991821 1.005450 82.698730 22.407190 -2.839576 52.942341 16.972679 -12.320145 -27.894127 12.759524 3.804204 85.262245 -11.912813 5.667160 28.958128 3.353443 -5.913951 -27.394182 -14.361147 0.836177 78.405067 12.161250 -7.088133 35.582184 -0.275633 8.742676 
-0.465591 5.351307 0.719231 -92.338013 0.000000 0.000000 -1.003301 -1.056910 -0.656237 -0.377612 1.830793 -0.932274 -1.001337 18.498571 -0.002145 -3.613379 10.999492 -0.001429 2.391418 1.668260 1.535848 -81.222816 -10.557241 3.410857 -59.207462 -8.671550 4.660761 -46.489162 15.508663 -0.439327 4.021867 -24.449644 -15.117922 75.008110 21.843056 1.319857 83.099358 22.735718 -2.991405 52.282650 16.620665 -13.244892 -28.457617 12.702144 3.716537 85.262245 -11.912813 5.667160 28.688141 3.308877 -6.062818 -28.023085 -14.175194 1.085976 78.405067 12.161250 -7.088133 35.326511 -0.284036 9.100598 
